# xmcd
#
# Track frame offsets: 
#        150
#        17707
#        38785
#        57924
#        74155
#        93778
#        113928
#        131823
#        150918
#        169791
#        188137
#        203197
#        218532
#        235893
#
# Disc length: 3461 seconds
#
# Revision: 0
# Processed by: cddbd v1.5.2PL0 Copyright (c) Steve Scherf et al.
# Submitted via: ExactAudioCopy v0.95b4
#
DISCID=be0d830e
DTITLE=Various Artist - ดาวทอง เสียงอิสาน 4
DYEAR=2007
DGENRE=Country
TTITLE0=01. พยัคฆ์สาว 444
TTITLE1=02. ผัวกะเทย
TTITLE2=03. อยู่ได้ย่อนตั๋ว
TTITLE3=04. ดี.เจ.ช่ว'้วย
TTITLE4=05. เจ็บแค่มดกัด
TTITLE5=06. ยาผีบอก
TTITLE6=07. อยากมีผัวเป็นตัวเป็นตน
TTITLE7=08. รักน้องต้องลืมเธอ
TTITLE8=09. เว้าผญาแล้วลาจาก
TTITLE9=10. ฝากใจในจอ
TTITLE10=11. ซังเลขา
TTITLE11=12. ขอถามใจ
TTITLE12=13. สาวสองพันปี
TTITLE13=14. แวมไพร์
EXTD=
EXTT0=
EXTT1=
EXTT2=
EXTT3=
EXTT4=
EXTT5=
EXTT6=
EXTT7=
EXTT8=
EXTT9=
EXTT10=
EXTT11=
EXTT12=
EXTT13=
PLAYORDER=
